# xmcd
#
# Track frame offsets:
#  150
#  20082
#  41268
#  59048
#  72540
#  89606
#  110409
#  132494
#  152339
#  172386
#  194137
#  205661
#  223660
#  241788
#
# Disc length: 3455 seconds
#
# Revision: 0
# Processed by: cddbd v1.5.1PL0 Copyright (c) Steve Scherf et al.
# Submitted via: Collectorz.com_Music_Collector 6.9
#
DISCID=d80d7d0e
DTITLE=Rachel Prescott - Hear My Cry
DYEAR=2004
DGENRE=
TTITLE0=The Vast Sea
TTITLE1=Not My Will
TTITLE2=I Hunger
TTITLE3=Show Me Your Ways
TTITLE4=Hear My Cry
TTITLE5=Your Perfect Love
TTITLE6=I Plead The Blood
TTITLE7=Reach Out
TTITLE8=He Heard My Cry
TTITLE9=Your Bride
TTITLE10=Show Me Your Ways (Acapella)
TTITLE11=Not My Will (Acapella)
TTITLE12=He Heard My Cry (Acapella)
TTITLE13=The Vast Sea (Acapella)
EXTD=
EXTT0=
EXTT1=
EXTT2=
EXTT3=
EXTT4=
EXTT5=
EXTT6=
EXTT7=
EXTT8=
EXTT9=
EXTT10=
EXTT11=
EXTT12=
EXTT13=
PLAYORDER=
